<?xml version="1.0" encoding="utf-8"?>
<svg xmlns="http://www.w3.org/2000/svg" xmlns:xlink="http://www.w3.org/1999/xlink" version="1.1" id="Layer_1" x="0px" y="0px" viewBox="0 0 256 256" style="enable-background:new 0 0 256 256" xml:space="preserve" width="512" height="512"><style type="text/css">.st0{fill:#EAA97D;} .st1{fill:#3762CC;} .st2{fill:#E0EBFC;} .st3{fill:#A4C9FF;} .st4{fill:#F9CFCF;} .st5{fill:#4671C6;} .st6{fill:#6BDDDD;} .st7{fill:#F9A7A7;} .st8{fill:#FFEA92;}</style><g><g><path class="st2" d="M214.903,245H75.355v-40.159c0-16.515,13.388-29.903,29.903-29.903H185c16.515,0,29.903,13.388,29.903,29.903    V245z"/></g><g><path class="st0" d="M93.558,177.315V245h11.7v-70.062C101.106,174.938,97.152,175.786,93.558,177.315z"/></g><g><path class="st0" d="M185,174.938h-0.025V245h11.7v-67.696C193.088,175.781,189.143,174.938,185,174.938z"/></g><g><path class="st1" d="M105.258,247h-11.7c-1.104,0-2-0.896-2-2v-67.685c0-0.802,0.479-1.526,1.217-1.84    c3.956-1.684,8.156-2.537,12.483-2.537c1.104,0,2,0.896,2,2V245C107.258,246.104,106.363,247,105.258,247z M95.558,243h7.7    v-65.992c-2.644,0.186-5.223,0.743-7.7,1.663V243z"/></g><g><path class="st1" d="M196.675,247h-11.7c-1.104,0-2-0.896-2-2v-70.062c0-1.104,0.896-2,2-2H185c4.319,0,8.51,0.85,12.456,2.525    c0.739,0.313,1.219,1.038,1.219,1.841V245C198.675,246.104,197.779,247,196.675,247z M186.975,243h7.7v-64.339    c-2.477-0.917-5.056-1.471-7.7-1.655V243z"/></g><g><path class="st5" d="M153.335,211.119c-5.939,0-10.473,0-16.413,0L131.967,245c9.526,0,16.799,0,26.325,0L153.335,211.119z"/></g><g><path class="st1" d="M214.903,247H75.355c-1.104,0-2-0.896-2-2v-40.159c0-17.592,14.312-31.903,31.903-31.903H185    c17.592,0,31.903,14.312,31.903,31.903V245C216.903,246.104,216.008,247,214.903,247z M77.355,243h135.548v-38.159    c0-15.386-12.518-27.903-27.903-27.903h-79.742c-15.386,0-27.903,12.518-27.903,27.903V243z"/></g><g><path class="st4" d="M145.129,169.107c-9.379,0-18.211-2.299-25.97-6.346v7.966h0l23.493,18.05    c1.461,1.122,3.494,1.121,4.954-0.002l23.444-18.047h0v-7.939C163.302,166.818,154.488,169.107,145.129,169.107z"/></g><g><path class="st1" d="M145.127,191.616c-1.304,0-2.606-0.417-3.694-1.253l-23.492-18.05c-0.493-0.378-0.782-0.964-0.782-1.586    v-7.966c0-0.699,0.365-1.348,0.963-1.71c0.598-0.362,1.341-0.386,1.962-0.063c7.676,4.003,16.336,6.119,25.045,6.119    c8.814,0,17.226-2.05,24.998-6.093c0.62-0.323,1.363-0.298,1.961,0.065c0.597,0.362,0.962,1.011,0.962,1.709v7.939    c0,0.621-0.288,1.206-0.78,1.585l-23.444,18.047C147.737,191.197,146.432,191.616,145.127,191.616z M121.159,169.742    l22.711,17.449c0.741,0.569,1.774,0.569,2.516-0.001l22.663-17.447l0.001-3.764c-7.476,3.363-15.68,5.128-23.921,5.128    c-8.261,0-16.481-1.774-23.97-5.152V169.742z"/></g><g><path class="st2" d="M171.049,170.727L171.049,170.727l-23.444,18.047c-1.46,1.124-3.493,1.125-4.954,0.002l-23.493-18.05h0    l-13.9,4.211l20.282,24.706c1.389,1.692,3.87,1.979,5.609,0.649l13.955-10.675l13.98,10.679c1.739,1.328,4.218,1.041,5.607-0.651    l20.284-24.709L171.049,170.727z"/></g><g><path class="st1" d="M161.554,203.14c-1.284,0-2.58-0.41-3.684-1.253l-12.765-9.751l-12.741,9.746    c-2.608,1.997-6.286,1.571-8.37-0.968l-20.282-24.707c-0.424-0.517-0.562-1.21-0.368-1.85c0.194-0.64,0.694-1.14,1.333-1.333    l13.9-4.211c0.616-0.187,1.287-0.065,1.798,0.328l23.493,18.05c0.741,0.569,1.774,0.569,2.516-0.001l23.443-18.047    c0.512-0.394,1.183-0.515,1.8-0.33l13.925,4.211c0.64,0.194,1.141,0.694,1.335,1.333c0.193,0.639,0.056,1.333-0.368,1.85    l-20.283,24.708C165.036,202.379,163.305,203.14,161.554,203.14z M149.097,190.151l11.201,8.557    c0.889,0.678,2.138,0.533,2.848-0.331l18.382-22.393l-10.072-3.046L149.097,190.151z M108.705,175.984l18.382,22.392    c0.71,0.865,1.961,1.008,2.848,0.33l11.202-8.57l-22.381-17.196L108.705,175.984z"/></g><g><polygon class="st5" points="145.104,189.618 145.104,189.618 145.104,189.618 134.451,197.768 136.923,211.119 153.285,211.119     155.759,197.757   "/></g><g><path class="st1" d="M158.292,247h-26.325c-0.581,0-1.133-0.252-1.513-0.692c-0.38-0.44-0.551-1.023-0.466-1.598l4.956-33.881    c0.144-0.982,0.985-1.71,1.979-1.71h16.413c0.993,0,1.835,0.728,1.979,1.71l4.956,33.881c0.085,0.575-0.086,1.158-0.466,1.598    C159.425,246.748,158.873,247,158.292,247z M134.28,243h21.698l-4.371-29.881h-12.956L134.28,243z"/></g><g><path class="st1" d="M153.285,213.119h-16.362c-0.964,0-1.791-0.688-1.967-1.636l-2.472-13.351    c-0.137-0.741,0.153-1.495,0.752-1.953l10.653-8.149c0.716-0.548,1.711-0.549,2.429-0.001l10.655,8.139    c0.599,0.458,0.89,1.212,0.753,1.954l-2.475,13.361C155.076,212.431,154.249,213.119,153.285,213.119z M138.587,209.119h13.034    l1.948-10.518l-8.464-6.465l-8.464,6.475L138.587,209.119z"/></g><g><path class="st5" d="M178.623,31.244h-66.987c-18.08,0-32.737,15.365-32.737,34.318v27.103c0,34.391,26.595,62.27,59.402,62.27    h13.657c32.807,0,59.402-27.879,59.402-62.27V65.562C211.36,46.608,196.703,31.244,178.623,31.244z"/></g><g><path class="st1" d="M151.958,156.935h-13.657c-33.857,0-61.402-28.832-61.402-64.27V65.562c0-20.026,15.583-36.318,34.737-36.318    h66.987c19.154,0,34.737,16.292,34.737,36.318v27.104C213.36,128.104,185.815,156.935,151.958,156.935z M111.636,33.244    c-16.949,0-30.737,14.498-30.737,32.318v27.104c0,33.233,25.75,60.27,57.402,60.27h13.657c31.651,0,57.402-27.037,57.402-60.27    V65.562c0-17.82-13.789-32.318-30.737-32.318H111.636z"/></g><g><path class="st4" d="M201.023,92.663V87.43c0-30.591-25.024-55.39-55.894-55.39l0,0c-30.869,0-55.894,24.799-55.894,55.39v5.234    c-9.706-0.197-17.406,7.535-17.406,16.881c0,9.98,8.712,17.874,18.882,16.798c5.768,24.506,27.935,42.764,54.418,42.764    c26.484,0,48.65-18.26,54.418-42.764c10.156,1.074,18.882-6.805,18.882-16.798C218.429,100.194,210.723,92.466,201.023,92.663z"/></g><g><path class="st1" d="M174.147,122.86L174.147,122.86c-4.552,0-8.242-3.69-8.242-8.242v-8.792c0-4.552,3.69-8.242,8.242-8.242h0    c4.552,0,8.242,3.69,8.242,8.242v8.792C182.389,119.17,178.699,122.86,174.147,122.86z"/></g><g><path class="st1" d="M116.097,122.86L116.097,122.86c-4.552,0-8.242-3.69-8.242-8.242v-8.792c0-4.552,3.69-8.242,8.242-8.242h0    c4.552,0,8.242,3.69,8.242,8.242v8.792C124.339,119.17,120.649,122.86,116.097,122.86z"/></g><g><path class="st1" d="M145.129,171.107c-26.477,0-49.247-17.462-55.954-42.67c-4.813,0.074-9.506-1.667-13.091-4.893    c-3.975-3.576-6.254-8.679-6.254-14c0-5.093,2.012-9.87,5.666-13.451c3.196-3.132,7.306-4.998,11.74-5.367V87.43    c0-31.645,25.971-57.39,57.894-57.39s57.895,25.745,57.895,57.39v3.297c4.434,0.369,8.543,2.235,11.739,5.368    c3.653,3.58,5.666,8.357,5.666,13.45c0,5.32-2.279,10.422-6.252,13.998c-3.586,3.226-8.279,4.958-13.093,4.894    C194.376,153.645,171.606,171.107,145.129,171.107z M90.713,124.343c0.918,0,1.731,0.63,1.945,1.542    c5.713,24.271,27.29,41.223,52.471,41.223c25.182,0,46.759-16.951,52.471-41.222c0.231-0.981,1.167-1.643,2.157-1.531    c4.29,0.451,8.566-0.926,11.744-3.785c3.132-2.818,4.928-6.836,4.928-11.024c0-4.009-1.586-7.771-4.466-10.593    c-2.908-2.85-6.783-4.361-10.898-4.289c-0.534,0.019-1.057-0.194-1.44-0.571s-0.601-0.891-0.601-1.429V87.43    c0-29.439-24.177-53.39-53.895-53.39c-29.717,0-53.894,23.951-53.894,53.39v5.233c0,0.538-0.216,1.052-0.6,1.429    c-0.384,0.376-0.907,0.587-1.44,0.571c-4.127-0.081-7.992,1.439-10.899,4.288c-2.88,2.822-4.466,6.584-4.466,10.594    c0,4.188,1.797,8.207,4.93,11.026c3.176,2.858,7.459,4.235,11.742,3.783C90.572,124.346,90.643,124.343,90.713,124.343z"/></g><g><path class="st5" d="M166.764,84.418H75.355v-28.22C75.355,31.236,95.591,11,120.553,11h46.211    c20.274,0,36.709,16.435,36.709,36.709v0C203.473,67.983,187.038,84.418,166.764,84.418z"/></g><g><path class="st1" d="M166.765,86.418h-91.41c-1.104,0-2-0.896-2-2v-28.22C73.355,30.173,94.528,9,120.553,9h46.211    c21.344,0,38.709,17.365,38.709,38.709S188.108,86.418,166.765,86.418z M77.355,82.418h89.41    c19.139,0,34.709-15.571,34.709-34.709S185.903,13,166.765,13h-46.211c-23.82,0-43.198,19.378-43.198,43.198V82.418z"/></g><g><path class="st1" d="M144.861,145.356L144.861,145.356c-3.668,0-7.08-1.32-9.363-3.622c-1.731-1.744-2.685-3.944-2.685-6.195    c0-1.104,0.896-2,2-2s2,0.896,2,2c0,1.205,0.527,2.373,1.524,3.378c1.515,1.527,3.953,2.439,6.523,2.439l0,0    c2.587,0,4.952-0.889,6.49-2.439c0.997-1.004,1.523-2.173,1.523-3.378c0-1.104,0.896-2,2-2s2,0.896,2,2    c0,2.25-0.953,4.45-2.684,6.195C151.908,144.036,148.507,145.356,144.861,145.356z"/></g><g><path class="st2" d="M66.652,192.371l0-8.48c1.38,0.176,2.783,0.277,4.209,0.277c1.427,0,2.829-0.101,4.209-0.277v8.48H66.652z"/></g><g><path class="st1" d="M75.07,194.371h-8.418c-1.104,0-2-0.896-2-2v-8.48c0-0.575,0.247-1.122,0.678-1.501    c0.432-0.38,1.005-0.555,1.575-0.483c2.708,0.346,5.2,0.347,7.912,0c0.571-0.073,1.144,0.103,1.575,0.483s0.678,0.926,0.678,1.501    v8.479C77.07,193.476,76.175,194.371,75.07,194.371z M68.652,190.371h4.418v-4.277c-1.497,0.099-2.921,0.099-4.418,0V190.371z"/></g><g><path class="st3" d="M70.861,184.168c18.356,0,33.29-15.001,33.29-33.439c0-18.439-14.934-33.439-33.29-33.439    c-18.356,0-33.29,15.001-33.29,33.439C37.571,169.167,52.505,184.168,70.861,184.168z M53.825,167.836    c-4.559-4.58-7.071-10.656-7.071-17.107c0-6.45,2.51-12.525,7.067-17.104c4.561-4.583,10.612-7.107,17.04-7.107    c13.292,0,24.107,10.861,24.107,24.211c0,6.45-2.51,12.524-7.067,17.104c-4.561,4.583-10.612,7.107-17.04,7.107    C64.436,174.94,58.386,172.417,53.825,167.836z"/></g><g><path class="st1" d="M70.861,186.168c-19.459,0-35.29-15.898-35.29-35.439c0-19.541,15.831-35.439,35.29-35.439    s35.29,15.898,35.29,35.439C106.151,170.27,90.32,186.168,70.861,186.168z M70.861,119.29c-17.253,0-31.29,14.104-31.29,31.439    c0,17.335,14.037,31.439,31.29,31.439s31.29-14.104,31.29-31.439C102.151,133.393,88.115,119.29,70.861,119.29z M70.861,176.94    c-6.961,0-13.515-2.732-18.454-7.692l0,0c-4.935-4.958-7.653-11.534-7.653-18.519c0-6.983,2.717-13.558,7.65-18.515    c4.938-4.963,11.493-7.696,18.455-7.696c0.001,0,0.001,0,0.002,0c14.396,0,26.107,11.758,26.107,26.211    c0,6.983-2.717,13.558-7.65,18.515C84.379,174.207,77.825,176.94,70.861,176.94z M55.243,166.425    c4.183,4.201,9.729,6.515,15.619,6.515c5.891,0,11.439-2.315,15.622-6.518c4.182-4.202,6.485-9.775,6.485-15.693    c0-12.247-9.917-22.211-22.107-22.211c0,0-0.001,0-0.001,0c-5.891,0-11.438,2.314-15.621,6.518    c-4.181,4.202-6.484,9.775-6.485,15.693C48.754,156.648,51.059,162.223,55.243,166.425L55.243,166.425z"/></g><g><path class="st5" d="M70.861,225.585L70.861,225.585c3.497,0,6.331-2.835,6.331-6.331v-25.006c0-1.037-0.84-1.877-1.877-1.877    h-8.909c-1.037,0-1.877,0.84-1.877,1.877v25.006C64.53,222.75,67.365,225.585,70.861,225.585z"/></g><g><path class="st1" d="M70.861,227.585c-4.594,0-8.331-3.737-8.331-8.332v-25.005c0-2.138,1.739-3.877,3.877-3.877h8.909    c2.138,0,3.877,1.739,3.877,3.877v25.005C79.193,223.848,75.456,227.585,70.861,227.585z M66.53,194.371v24.882    c0,2.388,1.943,4.332,4.331,4.332s4.332-1.943,4.332-4.332v-24.882H66.53z"/></g><g><path class="st4" d="M64.531,194.923c0-5.895-4.779-10.673-10.673-10.673c-1.564,0-2.832,1.268-2.832,2.832    c0,13.672,0,9.15,0,21.39H64.53v-6.157h0.001V194.923z"/></g><g><path class="st1" d="M64.53,210.472H51.026c-1.104,0-2-0.896-2-2v-21.39c0-2.664,2.167-4.832,4.832-4.832    c6.988,0,12.673,5.685,12.673,12.673l0,13.548C66.53,209.576,65.635,210.472,64.53,210.472z M53.026,206.472h9.504l0-11.548    c0-4.783-3.891-8.673-8.673-8.673c-0.458,0-0.832,0.373-0.832,0.832V206.472z M64.531,194.923h0.01H64.531z"/></g><g><path class="st4" d="M53.692,245h25.589c3.314,0,6-2.686,6-6v-30.685c0-3.314-2.686-6-6-6H53.692c-3.314,0-6,2.686-6,6V239    C47.692,242.314,50.378,245,53.692,245z"/></g><g><path class="st1" d="M79.282,247h-25.59c-4.411,0-8-3.589-8-8v-30.686c0-4.411,3.589-8,8-8h25.59c4.411,0,8,3.589,8,8V239    C87.282,243.411,83.693,247,79.282,247z M53.692,204.314c-2.206,0-4,1.794-4,4V239c0,2.206,1.794,4,4,4h25.59c2.206,0,4-1.794,4-4    v-30.686c0-2.206-1.794-4-4-4H53.692z"/></g></g></svg>
