<svg id="Capa_1" enable-background="new 0 0 512 512" height="512" viewBox="0 0 512 512" width="512" xmlns="http://www.w3.org/2000/svg"><g><g><g><path d="m51.012 307.676c0-51.455 91.778-93.158 204.988-93.158s204.988 41.703 204.988 93.158v-130.228h-409.976z" fill="#c1e3f7"/><path d="m123.181 144.914v180.206c0 4.011-3.362 7.217-7.366 6.991-14.178-.801-36.157-4.16-59.607-16.663-18.089-9.645-31.103-21.557-39.868-31.386-5.673-6.362-8.84-14.584-8.84-23.132v-160.272z" fill="#a6d6f8"/><path d="m388.819 162.165v162.954c0 4.011 3.362 7.217 7.366 6.991 14.178-.801 36.157-4.16 59.607-16.663 18.089-9.645 31.102-21.557 39.869-31.386 5.673-6.361 8.84-14.583 8.84-23.131v-160.272z" fill="#a6d6f8"/><path d="m474.5 116.609v144.321c0 8.548-3.167 16.77-8.84 23.131-8.766 9.829-21.78 21.742-39.868 31.386-12.757 6.802-25.066 10.884-35.934 13.334 1.296 2.11 3.666 3.48 6.327 3.33 14.178-.801 36.157-4.16 59.607-16.663 18.089-9.645 31.102-21.557 39.868-31.386 5.673-6.361 8.84-14.583 8.84-23.131v-160.273z" fill="#8bc9ef"/><path d="m388.819 198.081v-13.173c0-3.202 2.176-6.002 5.281-6.781 66.57-16.714 110.4-45.17 110.4-77.469 0-51.455-111.259-93.158-248.5-93.158s-248.5 41.703-248.5 93.158c0 32.299 43.83 60.754 110.4 77.469 3.105.78 5.281 3.58 5.281 6.781v13.173z" fill="#c1e3f7"/></g><g><path d="m59.01 512c-5.523 0-10-4.477-10-10v-63.17c0-30.12 19.32-56.84 47.92-66.27l94.83-31.26c9.54-3.14 15.98-12.05 15.98-22.09v-42.72h96.52v42.72c0 10.04 6.44 18.95 15.98 22.09l94.83 31.26c28.6 9.43 47.92 36.15 47.92 66.27v63.17c0 5.523-4.477 10-10 10z" fill="#db8894"/><g><path d="m415.07 372.56-94.83-31.26c-9.54-3.14-15.98-12.05-15.98-22.09v-42.72l-30 15v42.72c0 10.04 6.44 18.95 15.98 22.09l94.83 31.26c28.6 9.43 47.92 36.15 47.92 66.27v58.17h20c5.523 0 10-4.477 10-10v-63.17c0-30.12-19.32-56.84-47.92-66.27z" fill="#d4717f"/></g><path d="m256 366.5c23.844 0 45.203-10.578 59.688-27.28-6.974-4.121-11.428-11.669-11.428-20.01v-42.72h-96.52v42.72c0 8.341-4.453 15.89-11.428 20.01 14.485 16.702 35.844 27.28 59.688 27.28z" fill="#f1ccbd"/><path d="m274.26 334.21c0 10.04 6.44 18.95 15.98 22.09l2.868.945c8.596-4.589 16.245-10.722 22.58-18.025-.409-.241-.806-.497-1.197-.761-4.283-2.769-9.896-9.756-10.162-17.522-.042-.572-.069-1.147-.069-1.727v-42.72l-30 15z" fill="#eaad9c"/><g><g><path d="m209.678 37.5h92.644c24.969 0 45.211 20.242 45.211 45.211v94.737h-183.066v-94.737c0-24.969 20.242-45.211 45.211-45.211z" fill="#ce9775"/><path d="m302.322 37.5h-30c24.969 0 45.211 20.242 45.211 45.211v94.737h30v-94.737c0-24.969-20.242-45.211-45.211-45.211z" fill="#c6855b" opacity=".86"/><g><path d="m164.467 131.206v91.447c0 32.839 17.294 61.639 43.27 77.79 14.012 8.711 48.262 10.41 48.262 10.41 17.828 0 34.466-1.764 48.536-10.581 25.825-16.182 42.997-44.896 42.997-77.619v-91.447c-7.03-.016-22.187-1.022-37.912-10.429-9.289-5.557-15.699-12.203-19.826-17.402-1.433-1.805-4.05-2.134-5.851-.695-8.812 7.044-20.769 14.941-36.019 21.07-35.854 14.41-68.348 10.381-83.457 7.456z" fill="#f1ccbd"/><g fill="#eaad9c"><path d="m178.833 133.301c-5.728-.564-10.59-1.364-14.365-2.095v2.833c4.521-.016 9.327-.235 14.365-.738z"/><path d="m309.621 120.776c-9.291-5.558-15.702-12.206-19.829-17.405-1.433-1.805-4.047-2.131-5.847-.692-4.225 3.377-9.18 6.95-14.867 10.43 3.002 2.623 6.499 5.249 10.543 7.668 3.684 2.204 7.337 3.947 10.862 5.324 16.329 6.379 27.051 22.14 27.051 39.67v56.882c.222 6.095.695 36.255-21.986 59.508-21.725 22.274-56.098 29.397-87.807 18.278 8.789 5.291 22.692 11.916 40.675 13.433 0 0 3.897.313 7.585.313 50.552 0 91.533-40.981 91.533-91.533v-91.447c-7.032-.015-22.188-1.022-37.913-10.429z"/></g></g></g></g><g><path d="m341.103 243.1h-64.541c-3.409 0-6.525-1.926-8.05-4.975l-3.568-7.136c-3.685-7.37-14.203-7.37-17.889 0l-3.568 7.136c-1.525 3.049-4.641 4.975-8.05 4.975h-64.541c-8.284 0-15-6.716-15-15v-55.64c0-8.284 6.716-15 15-15h170.207c8.284 0 15 6.716 15 15v55.64c0 8.285-6.715 15-15 15z" fill="#4f6d8f"/></g><g><path d="m341.104 157.46h-30c8.284 0 15 6.716 15 15v55.64c0 8.284-6.716 15-15 15h30c8.284 0 15-6.716 15-15v-55.64c0-8.284-6.716-15-15-15z" fill="#455e7e"/></g></g></g><path d="m387.99 445.051c-4.143 0-7.5 3.358-7.5 7.5v51.949c0 4.142 3.357 7.5 7.5 7.5s7.5-3.358 7.5-7.5v-51.949c0-4.142-3.357-7.5-7.5-7.5zm-263.98 0c-4.143 0-7.5 3.358-7.5 7.5v51.949c0 4.142 3.357 7.5 7.5 7.5s7.5-3.358 7.5-7.5v-51.949c0-4.142-3.358-7.5-7.5-7.5zm310.338-417.291c-47.755-17.901-111.094-27.76-178.348-27.76-18.66 0-37.271.771-55.317 2.29-4.128.348-7.192 3.975-6.845 8.103.347 4.127 3.979 7.194 8.103 6.844 17.629-1.485 35.817-2.237 54.059-2.237 65.501 0 126.97 9.52 173.083 26.806 43.162 16.18 67.917 37.631 67.917 58.852 0 27.079-40.129 53.975-104.726 70.194-6.45 1.62-10.955 7.4-10.955 14.056v41.117c-5.72-1.951-11.64-3.768-17.716-5.435v-48.13c0-7.151-3.357-13.528-8.573-17.652v-72.098c0-29.064-23.646-52.71-52.71-52.71h-92.64c-29.064 0-52.71 23.646-52.71 52.71v72.098c-5.216 4.124-8.573 10.501-8.573 17.652v48.13c-6.076 1.667-11.995 3.484-17.716 5.435v-41.117c0-6.656-4.505-12.437-10.955-14.056-64.597-16.219-104.726-43.116-104.726-70.194 0-11.327 7.051-28.616 40.641-46.655 27.752-14.904 66.429-26.261 111.85-32.844 4.099-.594 6.94-4.399 6.347-8.498-.595-4.1-4.396-6.935-8.499-6.347-47.132 6.832-87.519 18.752-116.795 34.474-31.758 17.055-48.544 37.757-48.544 59.87v160.272c0 10.368 3.815 20.355 10.742 28.123 12.019 13.477 26.128 24.583 41.938 33.013 19.202 10.238 40.888 16.301 62.713 17.533 8.128.459 15.331-6.319 15.288-14.479v-83.195c6.099-2.215 12.483-4.262 19.073-6.133 1.899 5.202 5.663 9.513 10.481 12.117 5.317 20.163 17.051 38.38 33.344 51.628 2.154 1.751 4.378 3.403 6.662 4.958v14.715c.013 6.876-4.441 12.875-10.828 14.967l-94.831 31.261c-31.744 10.466-53.072 39.96-53.072 73.392v65.67c0 4.142 3.357 7.5 7.5 7.5s7.5-3.358 7.5-7.5v-65.67c0-26.943 17.188-50.712 42.768-59.147l94.827-31.259c.132-.044.258-.1.389-.145 16.213 16.407 38.322 25.721 61.506 25.721s45.293-9.313 61.506-25.722c.131.045.255.101.386.144l94.829 31.26c25.581 8.435 42.769 32.204 42.769 59.147v65.67c0 4.142 3.357 7.5 7.5 7.5s7.5-3.358 7.5-7.5v-65.67c0-33.432-21.328-62.926-53.072-73.393l-94.833-31.261c-6.379-2.084-10.831-8.108-10.825-14.966v-14.687c5.058-3.461 9.835-7.412 14.263-11.84 12.46-12.459 21.305-27.873 25.745-44.775 4.817-2.604 8.581-6.915 10.479-12.116 6.59 1.871 12.974 3.918 19.073 6.133v83.195c-.047 8.143 7.117 14.94 15.288 14.479 21.825-1.232 43.511-7.295 62.713-17.533 15.81-8.429 29.919-19.536 41.938-33.013 6.926-7.766 10.741-17.754 10.741-28.122v-160.272c0-28.238-27.577-54.126-77.652-72.898zm-318.667 296.83c-13.721-.834-34.387-4.267-55.944-15.761-14.243-7.594-26.961-17.607-37.799-29.76-4.474-5.016-6.938-11.458-6.938-18.139v-125.245c18.313 20.301 52.858 37.563 100.681 49.617zm56.289-241.88c0-20.793 16.917-37.71 37.71-37.71h92.641c20.793 0 37.71 16.917 37.71 37.71v40.554c-7.674-.875-17.082-3.256-26.559-8.92-6.813-4.078-12.806-9.339-17.809-15.638-1.949-2.456-4.737-4.001-7.849-4.352-3.091-.351-6.132.528-8.556 2.467-10.449 8.349-21.931 15.068-34.126 19.97-27.921 11.22-54.309 10.935-73.163 8.096v-42.177zm84.03 276.29c-18.157 0-35.521-6.912-48.697-19.18 4.986-5.518 7.937-12.785 7.937-20.61v-6.313c12.732 5.743 26.645 8.793 40.76 8.793 14.29 0 28.116-3.012 40.76-8.727v6.247c0 7.825 2.951 15.092 7.937 20.61-13.176 12.268-30.54 19.18-48.697 19.18zm59.416-76.923c-15.871 15.872-36.973 24.613-59.416 24.613-19.247 0-38.055-6.674-52.958-18.792-12.054-9.8-21.162-22.801-26.292-37.298h58.687c6.29 0 11.945-3.495 14.758-9.121l3.568-7.136c.602-1.203 1.659-1.382 2.236-1.382s1.635.179 2.236 1.381l3.568 7.137c2.812 5.626 8.468 9.121 14.758 9.121h58.694c-4.145 11.78-10.888 22.526-19.839 31.477zm33.188-53.976c0 3.366-2.229 6.22-5.288 7.166-.006.002-.013.003-.019.005-2.017.582-64.525.329-66.734.329-.571 0-1.086-.318-1.342-.829l-3.568-7.137c-2.983-5.966-8.981-9.673-15.652-9.673s-12.669 3.707-15.652 9.673l-3.568 7.137c-.256.511-.771.829-1.342.829-2.478 0-64.514.318-66.717-.324-.021-.006-.041-.011-.062-.017-3.046-.954-5.262-3.802-5.262-7.159v-55.64c0-4.135 3.364-7.5 7.5-7.5h42.684c4.143 0 7.5-3.358 7.5-7.5s-3.357-7.5-7.5-7.5h-41.61v-9.917c20.655 2.82 48.874 2.674 78.757-9.334 12.545-5.042 24.401-11.808 35.291-20.134 5.687 6.603 12.318 12.192 19.755 16.643 12.347 7.378 24.578 10.224 34.258 11.13v11.612h-91.45c-4.143 0-7.5 3.358-7.5 7.5s3.357 7.5 7.5 7.5h92.523c4.136 0 7.5 3.365 7.5 7.5v55.64zm148.396 32.829c0 6.681-2.464 13.123-6.938 18.139-10.838 12.153-23.556 22.166-37.799 29.76-21.558 11.494-42.223 14.927-55.944 15.76v-139.287c47.823-12.054 82.368-29.316 100.681-49.617zm-226.941 6.74c-3.066 1.682-8.016 3.692-14.364 3.606-6.048-.063-10.817-1.996-13.753-3.606-3.633-1.994-8.191-.662-10.183 2.969-1.991 3.632-.662 8.191 2.97 10.183 4.575 2.509 12.078 5.456 21.274 5.456 9.341 0 16.707-2.954 21.269-5.456 3.632-1.992 4.961-6.55 2.97-10.182-1.992-3.633-6.551-4.964-10.183-2.97z"/></g></svg>