<?xml version="1.0" encoding="utf-8"?>
<!-- Generator: Adobe Illustrator 24.0.2, SVG Export Plug-In . SVG Version: 6.00 Build 0)  -->
<svg version="1.1" id="Capa_1" xmlns="http://www.w3.org/2000/svg" xmlns:xlink="http://www.w3.org/1999/xlink" x="0px" y="0px"
	 viewBox="0 0 595.28 841.89" style="enable-background:new 0 0 595.28 841.89;" xml:space="preserve">
<style type="text/css">
	.st0{fill:#FFFFFF;stroke:#000000;stroke-miterlimit:10;}
	.st1{fill:#009FE3;}
	.st2{fill:none;stroke:#5278BB;stroke-miterlimit:10;}
	.st3{fill:#5278BB;}
	.st4{fill:none;}
	.st5{font-family:'MyriadPro-Regular';}
	.st6{font-size:12px;}
</style>
<ellipse class="st0" cx="297.64" cy="44.18" rx="113.01" ry="17.12"/>
<rect x="61.34" y="77.74" class="st0" width="157.53" height="30.14"/>
<path class="st0" d="M375.1,343.31c0.59-0.09,1.15-0.09,1.67-0.02v-53.55H219.23v58.9h85.21C326.46,337.5,351.76,347,375.1,343.31z"
	/>
<rect x="218.87" y="236.74" class="st0" width="157.53" height="30.14"/>
<rect x="218.87" y="183.74" class="st0" width="157.53" height="30.14"/>
<rect x="218.87" y="130.74" class="st0" width="157.53" height="30.14"/>
<rect x="376.77" y="77.74" class="st0" width="157.53" height="30.14"/>
<rect x="17.5" y="289.75" class="st0" width="157.53" height="49.08"/>
<rect x="218.87" y="368.15" class="st0" width="157.53" height="30.14"/>
<rect x="256.5" y="435.12" transform="matrix(0.7071 -0.7071 0.7071 0.7071 -249.8864 350.6717)" class="st0" width="83.7" height="83.7"/>
<rect x="218.87" y="683.71" class="st0" width="157.53" height="30.14"/>
<rect x="219.23" y="634.07" class="st0" width="157.53" height="30.14"/>
<path class="st0" d="M375.1,609.23c0.59-0.09,1.15-0.09,1.67-0.02v-53.55H219.23v58.9h85.21
	C326.46,603.42,351.76,612.91,375.1,609.23z"/>
<path class="st0" d="M375.1,769.95c0.59-0.06,1.15-0.06,1.67-0.01v-36.6H219.23v40.26h85.21
	C326.46,765.98,351.76,772.47,375.1,769.95z"/>
<ellipse class="st0" cx="483.89" cy="476.98" rx="41.05" ry="17.48"/>
<ellipse class="st0" cx="297.64" cy="810.58" rx="36.77" ry="17.48"/>
<g>
	<line class="st1" x1="461.58" y1="111.11" x2="393.57" y2="150.37"/>
	<g>
		<line class="st2" x1="461.58" y1="111.11" x2="398.8" y2="147.35"/>
		<g>
			<path class="st3" d="M393.57,150.37c1.93-2.33,4.08-5.65,5.02-8.39l0.89,4.98l3.87,3.26
				C400.51,149.66,396.56,149.86,393.57,150.37z"/>
		</g>
	</g>
</g>
<g>
	<line class="st1" x1="184.62" y1="51.39" x2="131.96" y2="74.51"/>
	<g>
		<line class="st2" x1="184.62" y1="51.39" x2="137.48" y2="72.08"/>
		<g>
			<path class="st3" d="M131.96,74.51c2.18-2.11,4.68-5.17,5.92-7.79l0.34,5.05l3.49,3.66C138.93,74.56,134.98,74.33,131.96,74.51z"
				/>
		</g>
	</g>
</g>
<g>
	<line class="st1" x1="132.5" y1="111.11" x2="200.51" y2="150.37"/>
	<g>
		<line class="st2" x1="132.5" y1="111.11" x2="195.28" y2="147.35"/>
		<g>
			<path class="st3" d="M200.51,150.37c-2.99-0.51-6.94-0.71-9.78-0.15l3.87-3.26l0.89-4.98
				C196.42,144.72,198.57,148.04,200.51,150.37z"/>
		</g>
	</g>
</g>
<g>
	<line class="st1" x1="410.65" y1="49.45" x2="463.06" y2="73.15"/>
	<g>
		<line class="st2" x1="410.65" y1="49.45" x2="457.56" y2="70.66"/>
		<g>
			<path class="st3" d="M463.06,73.15c-3.02-0.21-6.97-0.02-9.75,0.81l3.53-3.62l0.39-5.04C458.44,67.93,460.91,71.02,463.06,73.15z
				"/>
		</g>
	</g>
</g>
<g>
	<line class="st1" x1="298" y1="215.3" x2="298.35" y2="229.69"/>
	<g>
		<line class="st2" x1="298" y1="215.3" x2="298.21" y2="223.66"/>
		<g>
			<path class="st3" d="M298.35,229.69c-1.12-2.81-3.01-6.29-4.96-8.43l4.8,1.6l4.71-1.84
				C301.05,223.26,299.34,226.83,298.35,229.69z"/>
		</g>
	</g>
</g>
<g>
	<line class="st1" x1="298.71" y1="160.49" x2="298" y2="175.88"/>
	<g>
		<line class="st2" x1="298.71" y1="160.49" x2="298.28" y2="169.85"/>
		<g>
			<path class="st3" d="M298,175.88c-0.92-2.89-2.56-6.49-4.36-8.76l4.67,1.94l4.83-1.5C301.14,169.65,299.18,173.09,298,175.88z"/>
		</g>
	</g>
</g>
<g>
	<line class="st1" x1="298" y1="268.3" x2="297.64" y2="282.69"/>
	<g>
		<line class="st2" x1="298" y1="268.3" x2="297.79" y2="276.66"/>
		<g>
			<path class="st3" d="M297.64,282.69c-0.98-2.87-2.69-6.43-4.54-8.66l4.71,1.84l4.8-1.6C300.65,276.4,298.76,279.88,297.64,282.69
				z"/>
		</g>
	</g>
</g>
<g>
	<line class="st1" x1="298.35" y1="349.29" x2="298.35" y2="363.68"/>
	<g>
		<line class="st2" x1="298.35" y1="349.29" x2="298.35" y2="357.64"/>
		<g>
			<path class="st3" d="M298.35,363.68c-1.05-2.84-2.85-6.36-4.76-8.55l4.76,1.72l4.75-1.72
				C301.21,357.32,299.41,360.84,298.35,363.68z"/>
		</g>
	</g>
</g>
<g>
	<line class="st1" x1="235.86" y1="476.98" x2="178.34" y2="476.98"/>
	<g>
		<line class="st2" x1="235.86" y1="476.98" x2="184.38" y2="476.98"/>
		<g>
			<path class="st3" d="M178.34,476.98c2.84-1.05,6.36-2.85,8.55-4.76l-1.72,4.76l1.72,4.75
				C184.71,479.83,181.18,478.03,178.34,476.98z"/>
		</g>
	</g>
</g>
<g>
	<line class="st1" x1="96.27" y1="456.87" x2="96.27" y2="348.65"/>
	<g>
		<line class="st2" x1="96.27" y1="456.87" x2="96.27" y2="354.69"/>
		<g>
			<path class="st3" d="M96.27,348.65c1.05,2.84,2.85,6.36,4.76,8.55l-4.76-1.72l-4.75,1.72C93.42,355.01,95.22,351.49,96.27,348.65
				z"/>
		</g>
	</g>
</g>
<g>
	<line class="st1" x1="297.64" y1="399.25" x2="297.64" y2="413.64"/>
	<g>
		<line class="st2" x1="297.64" y1="399.25" x2="297.64" y2="407.6"/>
		<g>
			<path class="st3" d="M297.64,413.64c-1.05-2.84-2.85-6.36-4.76-8.55l4.76,1.72l4.75-1.72
				C300.49,407.28,298.69,410.8,297.64,413.64z"/>
		</g>
	</g>
</g>
<rect x="17.5" y="452.43" class="st0" width="157.53" height="49.08"/>
<g>
	<line class="st1" x1="178.34" y1="319.2" x2="207.1" y2="319.2"/>
	<g>
		<line class="st2" x1="178.34" y1="319.2" x2="201.07" y2="319.2"/>
		<g>
			<path class="st3" d="M207.1,319.2c-2.84,1.05-6.36,2.85-8.55,4.76l1.72-4.76l-1.72-4.75C200.74,316.35,204.26,318.15,207.1,319.2
				z"/>
		</g>
	</g>
</g>
<g>
	<line class="st1" x1="359.34" y1="476.98" x2="442.84" y2="476.98"/>
	<g>
		<line class="st2" x1="359.34" y1="476.98" x2="436.8" y2="476.98"/>
		<g>
			<path class="st3" d="M442.84,476.98c-2.84,1.05-6.36,2.85-8.55,4.76l1.72-4.76l-1.72-4.75
				C436.47,474.12,440,475.92,442.84,476.98z"/>
		</g>
	</g>
</g>
<g>
	<line class="st1" x1="298.35" y1="537.74" x2="298.35" y2="551.61"/>
	<g>
		<line class="st2" x1="298.35" y1="537.74" x2="298.35" y2="545.57"/>
		<g>
			<path class="st3" d="M298.35,551.61c-1.05-2.84-2.85-6.36-4.76-8.55l4.76,1.72l4.75-1.72
				C301.21,545.25,299.41,548.77,298.35,551.61z"/>
		</g>
	</g>
</g>
<g>
	<line class="st1" x1="298.35" y1="615.98" x2="298.35" y2="631.16"/>
	<g>
		<line class="st2" x1="298.35" y1="615.98" x2="298.35" y2="625.12"/>
		<g>
			<path class="st3" d="M298.35,631.16c-1.05-2.84-2.85-6.36-4.76-8.55l4.76,1.72l4.75-1.72
				C301.21,624.79,299.41,628.32,298.35,631.16z"/>
		</g>
	</g>
</g>
<g>
	<line class="st1" x1="298.35" y1="664.21" x2="298.35" y2="681.49"/>
	<g>
		<line class="st2" x1="298.35" y1="664.21" x2="298.35" y2="675.45"/>
		<g>
			<path class="st3" d="M298.35,681.49c-1.05-2.84-2.85-6.36-4.76-8.55l4.76,1.72l4.75-1.72
				C301.21,675.13,299.41,678.65,298.35,681.49z"/>
		</g>
	</g>
</g>
<g>
	<line class="st1" x1="298.35" y1="773.48" x2="298.35" y2="789.63"/>
	<g>
		<line class="st2" x1="298.35" y1="773.48" x2="298.35" y2="783.59"/>
		<g>
			<path class="st3" d="M298.35,789.63c-1.05-2.84-2.85-6.36-4.76-8.55l4.76,1.72l4.75-1.72
				C301.21,783.26,299.41,786.79,298.35,789.63z"/>
		</g>
	</g>
</g>
<g>
	<line class="st1" x1="297.64" y1="716.06" x2="297.64" y2="733.34"/>
	<g>
		<line class="st2" x1="297.64" y1="716.06" x2="297.64" y2="727.31"/>
		<g>
			<path class="st3" d="M297.64,733.34c-1.05-2.84-2.85-6.36-4.76-8.55l4.76,1.72l4.75-1.72
				C300.49,726.98,298.69,730.5,297.64,733.34z"/>
		</g>
	</g>
</g>
<rect x="262.45" y="466.46" class="st4" width="70.3" height="30.12"/>
<text transform="matrix(1 0 0 1 262.451 474.9784)"><tspan x="0" y="0" class="st5 st6">¿La propuesta </tspan><tspan x="0" y="14.4" class="st5 st6">es aprobada? </tspan></text>
<rect x="238.27" y="39.27" class="st4" width="130.74" height="9.82"/>
<text transform="matrix(1 0 0 1 238.2684 47.7904)" class="st5 st6">Proyecto de consultoría </text>
<rect x="115.29" y="88.47" class="st4" width="49.63" height="8.69"/>
<text transform="matrix(1 0 0 1 115.2884 96.9856)" class="st5 st6">Solicitud </text>
<rect x="428.65" y="87.98" class="st4" width="53.77" height="9.65"/>
<text transform="matrix(1 0 0 1 428.6513 96.5042)" class="st5 st6">Búsqueda</text>
<rect x="270.07" y="140.95" class="st4" width="56.57" height="9.71"/>
<text transform="matrix(1 0 0 1 270.0694 149.4744)" class="st5 st6">Consultor </text>
<rect x="267.41" y="194.79" class="st4" width="60.38" height="8.69"/>
<text transform="matrix(1 0 0 1 267.4101 203.3063)" class="st5 st6">Especialista </text>
<rect x="267" y="246.11" class="st4" width="61.21" height="9.93"/>
<text transform="matrix(1 0 0 1 266.9963 254.6335)" class="st5 st6">Diagnóstico </text>
<rect x="262.51" y="304.31" class="st4" width="76.1" height="29.78"/>
<text transform="matrix(1 0 0 1 262.5092 312.8288)"><tspan x="0" y="0" class="st5 st6">Elaboración de </tspan><tspan x="0" y="14.4" class="st5 st6">propuesta </tspan></text>
<rect x="42.5" y="472.16" class="st4" width="107.53" height="9.63"/>
<text transform="matrix(1 0 0 1 42.5019 480.6791)" class="st5 st6">A prueba condicional  </text>
<rect x="242.58" y="378.05" class="st4" width="119.11" height="10.34"/>
<text transform="matrix(1 0 0 1 242.5796 386.5695)" class="st5 st6">Se presenta propuesta  </text>
<rect x="56.56" y="301.12" class="st4" width="79.41" height="27.3"/>
<text transform="matrix(1 0 0 1 56.5633 309.6402)"><tspan x="0" y="0" class="st5 st6">Se realizan </tspan><tspan x="0" y="14.4" class="st5 st6">modificaciones  </tspan></text>
<rect x="475.68" y="470.94" class="st4" width="16.42" height="12.07"/>
<text transform="matrix(1 0 0 1 475.6784 479.4614)" class="st5 st6">Fin</text>
<rect x="243.76" y="567.06" class="st4" width="118.3" height="43.08"/>
<text transform="matrix(1 0 0 1 243.7598 575.5762)"><tspan x="0" y="0" class="st5 st6">Se redacta propuesta </tspan><tspan x="0" y="14.4" class="st5 st6">en términos específicos </tspan><tspan x="0" y="28.8" class="st5 st6">y financieros </tspan></text>
<rect x="238.87" y="643.66" class="st4" width="117.46" height="10.94"/>
<text transform="matrix(1 0 0 1 238.8723 652.1845)" class="st5 st6">Se formalizan acuerdos </text>
<rect x="265.13" y="694.02" class="st4" width="64.94" height="9.51"/>
<text transform="matrix(1 0 0 1 265.1309 702.538)" class="st5 st6">Intervención </text>
<rect x="276.92" y="748.45" class="st4" width="41.36" height="9.93"/>
<text transform="matrix(1 0 0 1 276.9223 756.967)" class="st5 st6">Informe</text>
<rect x="289.37" y="805.45" class="st4" width="16.54" height="10.26"/>
<text transform="matrix(1 0 0 1 289.3661 813.9672)" class="st5 st6">Fin </text>
<rect x="391.53" y="466.56" class="st4" width="17.31" height="8.77"/>
<text transform="matrix(1 0 0 1 391.5328 475.0768)" class="st5 st6">NO</text>
<rect x="309.53" y="538.68" class="st4" width="11.95" height="10.13"/>
<text transform="matrix(1 0 0 1 309.5275 547.2008)" class="st5 st6">SI</text>
</svg>
