<svg height="483pt" viewBox="0 -1 483.872 483" width="483pt" xmlns="http://www.w3.org/2000/svg"><path d="m459.136719 167.875c-.402344.960938-.800781 1.839844-1.199219 2.800781l5.277344 15.679688-11.359375 11.359375-15.679688-5.277344c-.960937.398438-1.839843.796875-2.800781 1.199219l-7.4375 14.800781h-16l-7.441406-14.800781c-.960938-.402344-1.839844-.800781-2.800782-1.199219l-15.679687 5.277344-11.359375-11.359375 5.28125-15.679688c-.402344-.960937-.800781-1.839843-1.203125-2.800781l-14.796875-7.4375v-16l14.796875-7.441406c.402344-.960938.800781-1.839844 1.203125-2.800782l-5.28125-15.679687 11.359375-11.359375 15.679687 5.28125c.960938-.402344 1.839844-.800781 2.800782-1.203125l7.441406-14.796875h16l7.4375 14.796875c.960938.402344 1.839844.800781 2.800781 1.203125l15.679688-5.28125 11.359375 11.359375-5.277344 15.679687c.398438.960938.796875 1.839844 1.199219 2.800782l14.800781 7.441406v16zm0 0" fill="#ffda44"/><path d="m433.9375 152.4375c0 8.835938-7.164062 16-16 16-8.839844 0-16-7.164062-16-16 0-8.839844 7.160156-16 16-16 8.835938 0 16 7.160156 16 16zm0 0" fill="#898890"/><path d="m395.535156 317.875c1.34375 3.039062 1.382813 6.492188.113282 9.558594-1.269532 3.066406-3.738282 5.480468-6.832032 6.683594l-77.839844 32.238281-5.039062 7.199219v98.882812h-128v-98.882812l-5.042969-7.199219-77.839843-32.238281c-4.691407-1.824219-7.800782-6.324219-7.839844-11.359376.027344-1.6875.410156-3.351562 1.121094-4.882812 2.917968-6.355469 10.371093-9.230469 16.800781-6.480469l72.800781 25.042969h128l72.796875-25.042969c6.433594-2.75 13.882813.125 16.800781 6.480469zm0 0" fill="#ff7956"/><path d="m283.136719 79.875c-.402344.960938-.800781 1.839844-1.199219 2.800781l5.277344 15.679688-11.359375 11.359375-15.679688-5.277344c-.960937.398438-1.839843.796875-2.800781 1.199219l-7.4375 14.800781h-16l-7.441406-14.800781c-.960938-.402344-1.839844-.800781-2.800782-1.199219l-15.679687 5.277344-11.359375-11.359375 5.28125-15.679688c-.402344-.960937-.800781-1.839843-1.203125-2.800781l-14.796875-7.4375v-16l14.796875-7.441406c.402344-.960938.800781-1.839844 1.203125-2.800782l-5.28125-15.679687 11.359375-11.359375 15.679687 5.28125c.960938-.402344 1.839844-.800781 2.800782-1.203125l7.441406-14.796875h16l7.4375 14.796875c.960938.402344 1.839844.800781 2.800781 1.203125l15.679688-5.28125 11.359375 11.359375-5.277344 15.679687c.398438.960938.796875 1.839844 1.199219 2.800782l14.800781 7.441406v16zm0 0" fill="#ffda44"/><path d="m273.9375 280.4375c0-22.09375-14.328125-40-32-40-17.675781 0-32 17.90625-32 40 0 22.089844 14.324219 40 32 40 17.671875 0 32-17.910156 32-40zm0 0" fill="#d9ccbc"/><path d="m257.9375 64.4375c0 8.835938-7.164062 16-16 16-8.839844 0-16-7.164062-16-16 0-8.839844 7.160156-16 16-16 8.835938 0 16 7.160156 16 16zm0 0" fill="#898890"/><path d="m107.136719 167.875c-.402344.960938-.800781 1.839844-1.199219 2.800781l5.277344 15.679688-11.359375 11.359375-15.679688-5.277344c-.960937.398438-1.839843.796875-2.800781 1.199219l-7.4375 14.800781h-16l-7.441406-14.800781c-.960938-.402344-1.839844-.800781-2.800782-1.199219l-15.679687 5.277344-11.359375-11.359375 5.28125-15.679688c-.402344-.960937-.800781-1.839843-1.203125-2.800781l-14.796875-7.4375v-16l14.796875-7.441406c.402344-.960938.800781-1.839844 1.203125-2.800782l-5.28125-15.679687 11.359375-11.359375 15.679687 5.28125c.960938-.402344 1.839844-.800781 2.800782-1.203125l7.441406-14.796875h16l7.4375 14.796875c.960938.402344 1.839844.800781 2.800781 1.203125l15.679688-5.28125 11.359375 11.359375-5.277344 15.679687c.398438.960938.796875 1.839844 1.199219 2.800782l14.800781 7.441406v16zm0 0" fill="#ffda44"/><path d="m81.9375 152.4375c0 8.835938-7.164062 16-16 16-8.839844 0-16-7.164062-16-16 0-8.839844 7.160156-16 16-16 8.835938 0 16 7.160156 16 16zm0 0" fill="#898890"/><path d="m281.9375 280.4375c0-26.472656-17.945312-48-40-48-22.058594 0-40 21.527344-40 48 0 26.46875 17.941406 48 40 48 22.054688 0 40-21.53125 40-48zm-40 32c-13.234375 0-24-14.351562-24-32s10.765625-32 24-32c13.230469 0 24 14.351562 24 32s-10.769531 32-24 32zm0 0"/><path d="m241.9375 88.4375c13.253906 0 24-10.746094 24-24 0-13.257812-10.746094-24-24-24-13.257812 0-24 10.742188-24 24 0 13.253906 10.742188 24 24 24zm0-32c4.417969 0 8 3.582031 8 8s-3.582031 8-8 8-8-3.582031-8-8 3.582031-8 8-8zm0 0"/><path d="m182.359375 79.636719 10.402344 5.199219-3.625 11.007812c-.960938 2.875-.214844 6.046875 1.925781 8.191406l11.320312 11.3125c2.144532 2.140625 5.3125 2.886719 8.183594 1.929688l11.050782-3.671875 5.199218 10.398437c1.347656 2.703125 4.101563 4.417969 7.121094 4.433594h16c3.046875.015625 5.835938-1.699219 7.199219-4.425781l5.199219-10.398438 11.046874 3.671875c2.875.957032 6.042969.210938 8.183594-1.929687l11.320313-11.3125c2.144531-2.144531 2.890625-5.316407 1.929687-8.191407l-3.671875-11.039062 10.398438-5.207031c2.703125-1.367188 4.402343-4.140625 4.394531-7.167969v-16c0-3.035156-1.714844-5.804688-4.425781-7.160156l-10.398438-5.203125 3.621094-11.046875c.964844-2.875.214844-6.046875-1.925781-8.191406l-11.28125-11.3125c-2.152344-2.125-5.316406-2.855469-8.183594-1.886719l-11.046875 3.671875-5.199219-10.402344c-1.34375-2.730469-4.117187-4.460938-7.160156-4.46875h-16c-3.035156-.003906-5.804688 1.710938-7.160156 4.421875l-5.203125 10.402344-11.046875-3.625c-2.871094-.960938-6.039063-.210938-8.183594 1.925781l-11.320312 11.273438c-2.128907 2.152343-2.859376 5.324218-1.886719 8.191406l3.671875 11.046875-10.402344 5.203125c-2.730469 1.339844-4.460938 4.117187-4.46875 7.160156v16c-.019531 3.046875 1.695312 5.835938 4.421875 7.199219zm11.578125-18.257813 10.398438-5.199218c1.800781-.902344 3.195312-2.449219 3.902343-4.335938.296875-.800781.617188-1.601562.960938-2.34375.832031-1.832031.9375-3.910156.296875-5.816406l-3.671875-11.03125 4.320312-4.320313 11.03125 3.679688c1.921875.644531 4.019531.53125 5.863281-.3125.738282-.34375 1.496094-.648438 2.273438-.933594 1.898438-.710937 3.453125-2.109375 4.359375-3.921875l5.199219-10.398438h6.113281l5.199219 10.398438c.90625 1.8125 2.464844 3.210938 4.359375 3.921875.800781.285156 1.535156.589844 2.273437.933594 1.847656.832031 3.9375.945312 5.863282.3125l11.03125-3.679688 4.320312 4.320313-3.671875 11.03125c-.640625 1.921875-.527344 4.015625.3125 5.855468.34375.800782.648437 1.527344.945313 2.304688.707031 1.886719 2.101562 3.433594 3.902343 4.335938l10.402344 5.199218v6.113282l-10.402344 5.207031c-1.796875.898437-3.191406 2.441406-3.902343 4.320312-.296876.800781-.617188 1.601563-.960938 2.351563-.832031 1.832031-.9375 3.910156-.296875 5.816406l3.671875 11.03125-4.320312 4.320312-11.03125-3.679687c-1.925782-.632813-4.015626-.519531-5.863282.3125-.738281.34375-1.496094.648437-2.273437.9375-1.894531.707031-3.453125 2.105469-4.359375 3.917969l-5.199219 10.402344h-6.113281l-5.199219-10.402344c-.90625-1.8125-2.460937-3.210938-4.359375-3.917969-.800781-.289063-1.535156-.59375-2.273438-.9375-1.84375-.84375-3.941406-.953125-5.863281-.3125l-11.03125 3.679687-4.320312-4.328124 3.671875-11.023438c.648437-1.929688.53125-4.039062-.320313-5.886719-.34375-.738281-.648437-1.503906-.9375-2.273437-.707031-1.882813-2.101562-3.433594-3.902343-4.335938l-10.398438-5.199218zm0 0"/><path d="m65.9375 176.4375c13.253906 0 24-10.746094 24-24 0-13.257812-10.746094-24-24-24-13.257812 0-24 10.742188-24 24 0 13.253906 10.742188 24 24 24zm0-32c4.417969 0 8 3.582031 8 8s-3.582031 8-8 8-8-3.582031-8-8 3.582031-8 8-8zm0 0"/><path d="m6.359375 167.636719 10.402344 5.199219-3.625 11.007812c-.960938 2.875-.214844 6.046875 1.925781 8.191406l11.320312 11.3125c2.144532 2.140625 5.3125 2.886719 8.183594 1.929688l11.050782-3.671875 5.199218 10.398437c1.347656 2.703125 4.101563 4.417969 7.121094 4.433594h16c3.03125 0 5.804688-1.714844 7.160156-4.425781l5.199219-10.398438 11.046875 3.671875c2.875.957032 6.042969.210938 8.183594-1.929687l11.320312-11.3125c2.144532-2.144531 2.890625-5.316407 1.929688-8.191407l-3.671875-11.039062 10.398437-5.207031c2.71875-1.355469 4.433594-4.132813 4.433594-7.167969v-16c0-3.035156-1.714844-5.804688-4.425781-7.160156l-10.398438-5.203125 3.671875-11.046875c.960938-2.875.214844-6.046875-1.929687-8.191406l-11.320313-11.3125c-2.140625-2.140626-5.308594-2.886719-8.183594-1.925782l-11.046874 3.671875-5.199219-10.402343c-1.355469-2.71875-4.132813-4.433594-7.167969-4.429688h-16c-3.035156-.003906-5.804688 1.710938-7.160156 4.421875l-5.203125 10.402344-11.046875-3.625c-2.871094-.960938-6.039063-.210938-8.183594 1.925781l-11.320312 11.273438c-2.128907 2.152343-2.859376 5.324218-1.886719 8.191406l3.671875 11.046875-10.402344 5.203125c-2.730469 1.339844-4.460938 4.117187-4.46875 7.160156v16c-.019531 3.046875 1.695312 5.835938 4.421875 7.199219zm11.578125-18.257813 10.398438-5.199218c1.800781-.902344 3.195312-2.449219 3.902343-4.335938.296875-.800781.617188-1.601562.960938-2.34375.832031-1.832031.9375-3.910156.296875-5.816406l-3.671875-11.03125 4.320312-4.320313 11.03125 3.679688c1.921875.644531 4.019531.53125 5.863281-.3125.738282-.34375 1.496094-.648438 2.273438-.933594 1.898438-.710937 3.453125-2.109375 4.359375-3.921875l5.199219-10.398438h6.113281l5.199219 10.398438c.90625 1.8125 2.464844 3.210938 4.359375 3.921875.800781.285156 1.535156.589844 2.273437.933594 1.847656.832031 3.9375.945312 5.863282.3125l11.03125-3.679688 4.320312 4.320313-3.671875 11.03125c-.640625 1.921875-.527344 4.015625.3125 5.855468.34375.761719.648437 1.527344.945313 2.304688.707031 1.886719 2.101562 3.433594 3.902343 4.335938l10.402344 5.199218v6.113282l-10.402344 5.207031c-1.796875.898437-3.191406 2.441406-3.902343 4.320312-.296876.800781-.617188 1.601563-.960938 2.351563-.832031 1.832031-.9375 3.910156-.296875 5.816406l3.671875 11.03125-4.320312 4.320312-11.03125-3.679687c-1.925782-.632813-4.015626-.519531-5.863282.3125-.738281.34375-1.496094.648437-2.273437.9375-1.894531.707031-3.453125 2.105469-4.359375 3.917969l-5.199219 10.402344h-6.105469l-5.199218-10.402344c-.90625-1.8125-2.460938-3.210938-4.359376-3.917969-.800781-.289063-1.535156-.59375-2.273437-.9375-1.84375-.84375-3.9375-.953125-5.863281-.3125l-11.03125 3.679687-4.320313-4.328124 3.671875-11.023438c.648438-1.929688.53125-4.039062-.320312-5.886719-.34375-.738281-.648438-1.503906-.9375-2.273437-.707032-1.882813-2.101563-3.433594-3.902344-4.335938l-10.40625-5.199218zm0 0"/><path d="m393.9375 152.4375c0 13.253906 10.742188 24 24 24 13.253906 0 24-10.746094 24-24 0-13.257812-10.746094-24-24-24-13.257812 0-24 10.742188-24 24zm32 0c0 4.417969-3.582031 8-8 8s-8-3.582031-8-8 3.582031-8 8-8 8 3.582031 8 8zm0 0"/><path d="m409.9375 88.4375c-3.046875-.019531-5.839844 1.695312-7.203125 4.421875l-5.199219 10.402344-11.007812-3.625c-2.871094-.960938-6.039063-.210938-8.183594 1.925781l-11.320312 11.273438c-2.140626 2.144531-2.890626 5.316406-1.925782 8.191406l3.671875 11.046875-10.402343 5.203125c-2.714844 1.351562-4.429688 4.125-4.429688 7.160156v16c-.003906 3.03125 1.710938 5.804688 4.421875 7.160156l10.402344 5.207032-3.671875 11.039062c-.964844 2.875-.21875 6.046875 1.925781 8.191406l11.320313 11.3125c2.144531 2.140625 5.3125 2.886719 8.183593 1.929688l11.046875-3.671875 5.203125 10.398437c1.351563 2.71875 4.128907 4.433594 7.167969 4.433594h16c3.046875.015625 5.835938-1.699219 7.199219-4.425781l5.199219-10.398438 11.046874 3.671875c2.875.957032 6.042969.210938 8.183594-1.929687l11.320313-11.3125c2.144531-2.144531 2.890625-5.316407 1.929687-8.191407l-3.671875-11.039062 10.398438-5.207031c2.703125-1.367188 4.402343-4.140625 4.394531-7.167969v-16c0-3.035156-1.714844-5.804688-4.425781-7.160156l-10.398438-5.203125 3.671875-11.046875c.960938-2.875.214844-6.046875-1.929687-8.191406l-11.320313-11.3125c-2.140625-2.140626-5.308594-2.886719-8.183594-1.925782l-11.046874 3.671875-5.199219-10.402343c-1.355469-2.71875-4.132813-4.433594-7.167969-4.429688zm20.613281 30.328125c.800781.285156 1.539063.589844 2.273438.933594 1.847656.832031 3.9375.945312 5.863281.3125l11.03125-3.679688 4.320312 4.320313-3.671874 11.03125c-.640626 1.921875-.527344 4.015625.3125 5.855468.34375.761719.648437 1.527344.945312 2.304688.707031 1.886719 2.101562 3.433594 3.902344 4.335938l10.402344 5.199218v6.113282l-10.402344 5.207031c-1.796875.898437-3.191406 2.441406-3.902344 4.320312-.289062.800781-.59375 1.542969-.9375 2.296875-.855469 1.84375-.96875 3.945313-.320312 5.871094l3.671874 11.03125-4.320312 4.320312-11.03125-3.679687c-1.925781-.632813-4.015625-.519531-5.863281.3125-.734375.34375-1.496094.648437-2.273438.9375-1.894531.707031-3.453125 2.105469-4.359375 3.917969l-5.199218 10.402344h-6.113282l-5.199218-10.402344c-.90625-1.8125-2.460938-3.210938-4.359376-3.917969-.800781-.289063-1.535156-.59375-2.273437-.9375-1.84375-.84375-3.9375-.953125-5.863281-.3125l-11.03125 3.679687-4.320313-4.320312 3.671875-11.03125c.640625-1.90625.535156-3.984375-.296875-5.816406-.34375-.800782-.664062-1.597656-.960937-2.351563-.710938-1.878906-2.105469-3.421875-3.902344-4.320312l-10.40625-5.207031v-6.113282l10.398438-5.199218c1.800781-.902344 3.195312-2.449219 3.902343-4.335938.304688-.800781.625-1.601562.96875-2.351562.820313-1.832032.925781-3.90625.289063-5.808594l-3.671875-11.03125 4.320312-4.320313 11.03125 3.679688c1.921875.644531 4.019531.53125 5.863281-.3125.738282-.34375 1.496094-.648438 2.273438-.933594 1.898438-.710937 3.453125-2.109375 4.359375-3.921875l5.199219-10.398438h6.113281l5.199219 10.398438c.90625 1.8125 2.46875 3.214844 4.367187 3.921875zm0 0"/><path d="m376.105469 303.835938-71.503907 24.601562h-125.328124l-71.027344-24.417969c-10.457032-4.332031-22.46875.378907-27.199219 10.664063-1.140625 2.546875-1.738281 5.300781-1.757813 8.089844.066407 8.253906 5.09375 15.660156 12.742188 18.765624l75.6875 31.320313 2.257812 3.199219v96.378906c0 4.417969 3.582032 8 8 8h127.960938c4.417969 0 8-3.582031 8-8v-96.378906l2.253906-3.199219 75.703125-31.328125c5.152344-2.101562 9.222657-6.207031 11.28125-11.375 2.003907-5.007812 1.882813-10.617188-.335937-15.535156-4.617188-10.144532-16.375-14.886719-26.734375-10.785156zm12.230469 20.417968c-.480469 1.140625-1.398438 2.042969-2.550782 2.503906l-77.832031 32.207032c-1.398437.582031-2.605469 1.546875-3.480469 2.78125l-5.046875 7.203125c-.957031 1.34375-1.46875 2.957031-1.464843 4.605469v90.882812h-112.023438v-90.914062c0-1.648438-.511719-3.261719-1.464844-4.609376l-5.046875-7.199218c-.878906-1.234375-2.082031-2.199219-3.480469-2.78125l-77.800781-32.195313c-1.691406-.613281-2.839843-2.199219-2.898437-4 .023437-.550781.15625-1.097656.394531-1.597656.625-1.210937 1.707031-2.125 3.007813-2.535156 1.300781-.410157 2.710937-.289063 3.917968.34375l72.800782 25.039062c.828124.285157 1.695312.4375 2.570312.449219h128c.882812-.003906 1.761719-.148438 2.597656-.433594l73.242188-25.222656c2.445312-1.058594 5.292968-.003906 6.453125 2.398438.449219.96875.488281 2.078124.105469 3.074218zm0 0"/><path d="m273.9375 440.4375h16v16h-16zm0 0"/><path d="m249.9375 440.4375h16v16h-16zm0 0"/><path d="m273.9375 416.4375h16v16h-16zm0 0"/><path d="m73.585938 296.4375c-17.65625.277344-33.640626-10.390625-40.152344-26.800781-3.410156-9.738281-3.007813-20.402344 1.117187-29.855469l8.730469 13.09375 13.3125-8.878906-16-24c-1.425781-2.140625-3.792969-3.464844-6.363281-3.558594-.742188.050781-1.476563.203125-2.183594.453125l-.046875-.214844-32 8 3.871094 15.519531 14.863281-3.710937c-4.71875 12.464844-4.816406 26.210937-.277344 38.742187 8.859375 22.65625 30.804688 37.46875 55.128907 37.210938h.40625l-.113282-16zm0 0"/><path d="m483.871094 224.675781-32-8-.054688.214844c-.703125-.246094-1.433594-.402344-2.175781-.453125-2.582031.082031-4.96875 1.40625-6.402344 3.558594l-16 24 13.3125 8.878906 8.730469-13.09375c4.125 9.457031 4.527344 20.125 1.117188 29.863281-6.511719 16.390625-22.472657 27.054688-40.109376 26.792969h-.296874l-.113282 16h.410156c24.324219.265625 46.277344-14.546875 55.144532-37.203125 4.535156-12.535156 4.4375-26.28125-.28125-38.75l14.847656 3.710937zm0 0"/><path d="m73.9375 72.4375h96v-16h-104c-4.417969 0-8 3.582031-8 8v16h16zm0 0"/><path d="m409.9375 80.4375h16v-16c0-4.417969-3.582031-8-8-8h-104v16h96zm0 0"/></svg>